<svg width="46" height="46" viewBox="0 0 46 46" fill="none" xmlns="http://www.w3.org/2000/svg">
<rect width="46" height="46" fill="white"/>
<circle cx="23" cy="8" r="6" fill="white" stroke="#101B52" stroke-width="2"/>
<rect x="12" y="17" width="22" height="21" rx="10.5" fill="white" stroke="#101B52" stroke-width="2"/>
<mask id="path-3-inside-1" fill="white">
<path fill-rule="evenodd" clip-rule="evenodd" d="M23 28.3722C30.7824 24.0245 35.9916 23.3202 46 23.5338V41.1616C35.9916 40.948 30.7824 41.6523 23 46V28.3722Z"/>
</mask>
<path fill-rule="evenodd" clip-rule="evenodd" d="M23 28.3722C30.7824 24.0245 35.9916 23.3202 46 23.5338V41.1616C35.9916 40.948 30.7824 41.6523 23 46V28.3722Z" fill="#FF498B"/>
<path d="M46 23.5338L46.0427 21.5343L48 21.5761V23.5338H46ZM23 28.3722H21V27.1986L22.0246 26.6262L23 28.3722ZM46 41.1616H48V43.2048L45.9573 43.1612L46 41.1616ZM23 46L23.9754 47.746L21 49.4082V46H23ZM45.9573 25.5334C40.9882 25.4273 37.359 25.555 34.0508 26.205C30.7766 26.8483 27.7276 28.022 23.9754 30.1182L22.0246 26.6262C26.0549 24.3746 29.5017 23.0223 33.2797 22.28C37.0238 21.5444 41.0034 21.4267 46.0427 21.5343L45.9573 25.5334ZM44 41.1616V23.5338H48V41.1616H44ZM45.9573 43.1612C40.9882 43.0551 37.359 43.1828 34.0508 43.8328C30.7766 44.4761 27.7276 45.6498 23.9754 47.746L22.0246 44.254C26.0549 42.0024 29.5017 40.6501 33.2797 39.9078C37.0238 39.1722 41.0034 39.0545 46.0427 39.1621L45.9573 43.1612ZM25 28.3722V46H21V28.3722H25Z" fill="#101B52" mask="url(#path-3-inside-1)"/>
<mask id="path-5-inside-2" fill="white">
<path fill-rule="evenodd" clip-rule="evenodd" d="M23 28.3722C15.2176 24.0245 10.0084 23.3202 0 23.5338V41.1616C10.0084 40.948 15.2176 41.6523 23 46V28.3722Z"/>
</mask>
<path fill-rule="evenodd" clip-rule="evenodd" d="M23 28.3722C15.2176 24.0245 10.0084 23.3202 0 23.5338V41.1616C10.0084 40.948 15.2176 41.6523 23 46V28.3722Z" fill="#FF498B"/>
<path d="M0 23.5338L-0.04269 21.5343L-2 21.5761V23.5338H0ZM23 28.3722H25V27.1986L23.9754 26.6262L23 28.3722ZM0 41.1616H-2V43.2048L0.04269 43.1612L0 41.1616ZM23 46L22.0246 47.746L25 49.4082V46H23ZM0.04269 25.5334C5.01179 25.4273 8.64098 25.555 11.9492 26.205C15.2234 26.8483 18.2724 28.022 22.0246 30.1182L23.9754 26.6262C19.9451 24.3746 16.4983 23.0223 12.7203 22.28C8.97623 21.5444 4.99663 21.4267 -0.04269 21.5343L0.04269 25.5334ZM2 41.1616V23.5338H-2V41.1616H2ZM0.04269 43.1612C5.01179 43.0551 8.64098 43.1828 11.9492 43.8328C15.2234 44.4761 18.2724 45.6498 22.0246 47.746L23.9754 44.254C19.9451 42.0024 16.4983 40.6501 12.7203 39.9078C8.97623 39.1722 4.99663 39.0545 -0.04269 39.1621L0.04269 43.1612ZM21 28.3722V46H25V28.3722H21Z" fill="#101B52" mask="url(#path-5-inside-2)"/>
</svg>
